<svg xmlns="http://www.w3.org/2000/svg"  viewBox="0 0 64 64" width="64px" height="64px"><path fill="#72caaf" d="M13,19.952C13,9.485,21.485,1,31.952,1s18.952,8.485,18.952,18.952 c0,13.687-16.846,25.269-18.955,42.048C29.846,45.221,13,33.639,13,19.952z"/><path fill="#faefde" d="M23 17L23 27 29 27 29 19 35 19 35 27 41 27 41 17 32 9z"/><path fill="#cda1a7" d="M29 19H35V27H29z"/><path fill="#efd8be" d="M23.659,16.655l0.016,0.016c0.749,0.749,1.948,0.795,2.752,0.106L32,12l5.745,4.924 c0.708,0.607,1.764,0.566,2.424-0.093L41,17l-8.76-7.659L23.659,16.655z"/><path fill="#8d6c9f" d="M31.952,0C20.95,0,12,8.95,12,19.952c0,7.154,4.308,13.608,8.869,20.441 c4.458,6.679,9.067,13.584,10.088,21.73C31.019,62.625,31.444,63,31.949,63c0.504,0,0.929-0.375,0.992-0.875 c1.024-8.146,5.633-15.051,10.091-21.729c4.562-6.834,8.872-13.289,8.872-20.444C51.904,8.95,42.953,0,31.952,0z M41.369,39.286 c-3.711,5.56-7.525,11.272-9.419,17.814c-1.893-6.543-5.706-12.257-9.418-17.817C18.145,32.709,14,26.5,14,19.952 C14,10.054,22.053,2,31.952,2c9.899,0,17.952,8.054,17.952,17.952C49.904,26.501,45.758,32.711,41.369,39.286z"/><path fill="#8d6c9f" d="M43.36,19.769C43.547,19.924,43.774,20,44,20c0.287,0,0.571-0.122,0.769-0.359 c0.354-0.425,0.296-1.056-0.128-1.409l-12-10C32.611,8.207,32.576,8.2,32.545,8.18c-0.058-0.038-0.115-0.071-0.178-0.096 c-0.059-0.024-0.117-0.04-0.178-0.052C32.125,8.02,32.064,8.013,32,8.013S31.874,8.02,31.81,8.033 c-0.061,0.012-0.119,0.028-0.178,0.052c-0.063,0.025-0.12,0.058-0.178,0.096c-0.031,0.02-0.066,0.027-0.095,0.051l-12,10 c-0.424,0.354-0.481,0.984-0.128,1.409C19.43,19.878,19.714,20,20,20c0.226,0,0.453-0.076,0.64-0.231L22,18.635V26h-1 c-0.552,0-1,0.447-1,1s0.448,1,1,1h1h6h8h6h1c0.552,0,1-0.447,1-1s-0.448-1-1-1h-1v-7.365L43.36,19.769z M30,26v-6h4v6H30z M40,17 v9h-4v-6c0-1.103-0.897-2-2-2h-4c-1.103,0-2,0.897-2,2v6h-4v-9c0-0.01-0.005-0.017-0.005-0.027L32,10.302l8.005,6.671 C40.005,16.983,40,16.99,40,17z"/><path fill="#faefde" d="M27 30c-.552 0-1 .447-1 1v2c0 .553.448 1 1 1s1-.447 1-1v-2C28 30.447 27.552 30 27 30zM22 30c-.552 0-1 .447-1 1v2c0 .553.448 1 1 1s1-.447 1-1v-2C23 30.447 22.552 30 22 30zM32 30c-.552 0-1 .447-1 1v2c0 .553.448 1 1 1s1-.447 1-1v-2C33 30.447 32.552 30 32 30zM37 30c-.552 0-1 .447-1 1v2c0 .553.448 1 1 1s1-.447 1-1v-2C38 30.447 37.552 30 37 30zM42 30c-.552 0-1 .447-1 1v2c0 .553.448 1 1 1s1-.447 1-1v-2C43 30.447 42.552 30 42 30z"/></svg>