<svg xmlns="http://www.w3.org/2000/svg"  viewBox="0 0 64 64" width="48px" height="48px"><rect width="48" height="17" x="8" y="34" fill="#f283a5"/><path fill="#8d6c9f" d="M56,52H8c-0.552,0-1-0.448-1-1V34c0-0.552,0.448-1,1-1h48c0.552,0,1,0.448,1,1v17 C57,51.552,56.552,52,56,52z M9,50h46V35H9V50z"/><circle cx="50" cy="57" r="2" fill="#8d6c9f"/><path fill="#acb7d0" d="M26,52c0,3.313-2.688,6-6,6s-6-2.688-6-6s2.688-6,6-6S26,48.688,26,52z"/><path fill="#8d6c9f" d="M20,59c-3.859,0-7-3.141-7-7s3.141-7,7-7s7,3.141,7,7S23.859,59,20,59z M20,47 c-2.757,0-5,2.243-5,5s2.243,5,5,5s5-2.243,5-5S22.757,47,20,47z"/><path fill="#8d6c9f" d="M22,52c0,1.105-0.895,2-2,2s-2-0.895-2-2s0.895-2,2-2S22,50.895,22,52z"/><path fill="#8d6c9f" d="M50,58c-0.552,0-1-0.448-1-1v-6c0-0.552,0.448-1,1-1s1,0.448,1,1v6C51,57.552,50.552,58,50,58z"/><path fill="#8d6c9f" d="M10,35c-0.552,0-1-0.448-1-1V21c0-0.552,0.448-1,1-1s1,0.448,1,1v13C11,34.552,10.552,35,10,35z"/><path fill="#8d6c9f" d="M54,35c-0.552,0-1-0.448-1-1V21c0-0.552,0.448-1,1-1s1,0.448,1,1v13C55,34.552,54.552,35,54,35z"/><path fill="#ed7899" d="M36,21c0,2.208-1.791,4-4,4s-4-1.792-4-4s1.791-4,4-4S36,18.792,36,21 M52,21c0,2.208-1.791,4-4,4 s-4-1.792-4-4s1.791-4,4-4S52,18.792,52,21 M12,21c0,2.208,1.791,4,4,4s4-1.792,4-4s-1.791-4-4-4S12,18.792,12,21"/><path fill="#8d6c9f" d="M48,26c-2.757,0-5-2.243-5-5s2.243-5,5-5s5,2.243,5,5S50.757,26,48,26z M48,18c-1.654,0-3,1.346-3,3 s1.346,3,3,3s3-1.346,3-3S49.654,18,48,18z M32,26c-2.757,0-5-2.243-5-5s2.243-5,5-5s5,2.243,5,5S34.757,26,32,26z M32,18 c-1.654,0-3,1.346-3,3s1.346,3,3,3s3-1.346,3-3S33.654,18,32,18z M16,26c-2.757,0-5-2.243-5-5s2.243-5,5-5s5,2.243,5,5 S18.757,26,16,26z M16,18c-1.654,0-3,1.346-3,3s1.346,3,3,3s3-1.346,3-3S17.654,18,16,18z"/><path fill="#f7a1c8" d="M28,21V10h8v11 M52,21l-2.571-11H42l2,11 M12,21l2.584-11H22l-2,11"/><path fill="#8d6c9f" d="M12.001,22c-0.076,0-0.153-0.008-0.229-0.026c-0.538-0.126-0.871-0.665-0.745-1.202l2.584-11 C13.717,9.319,14.12,9,14.584,9H22c0.296,0,0.578,0.132,0.768,0.359s0.27,0.528,0.216,0.819l-2,11 c-0.099,0.543-0.613,0.901-1.163,0.805c-0.543-0.099-0.904-0.62-0.805-1.163L20.802,11h-5.425l-2.403,10.229 C12.865,21.689,12.455,22,12.001,22z M51.999,22c-0.454,0-0.865-0.311-0.973-0.772L48.636,11h-5.438l1.786,9.821 c0.099,0.543-0.262,1.064-0.805,1.163c-0.542,0.096-1.063-0.262-1.163-0.805l-2-11c-0.053-0.292,0.026-0.592,0.216-0.819 S41.704,9,42,9h7.429c0.464,0,0.868,0.32,0.974,0.772l2.571,11c0.126,0.538-0.208,1.076-0.746,1.201 C52.151,21.992,52.075,22,51.999,22z M36,22c-0.552,0-1-0.448-1-1V11h-6v10c0,0.552-0.448,1-1,1s-1-0.448-1-1V10 c0-0.552,0.448-1,1-1h8c0.552,0,1,0.448,1,1v11C37,21.552,36.552,22,36,22z"/><g><path fill="#efc88e" d="M44,21c0,2.208-1.791,4-4,4s-4-1.792-4-4s1.791-4,4-4S44,18.792,44,21 M60,21c0,2.208-1.791,4-4,4 s-4-1.792-4-4 M20,21c0,2.208,1.791,4,4,4s4-1.792,4-4s-1.791-4-4-4S20,18.792,20,21 M4,21c0,2.208,1.791,4,4,4s4-1.792,4-4"/><path fill="#8d6c9f" d="M56,26c-2.757,0-5-2.243-5-5c0-0.552,0.448-1,1-1s1,0.448,1,1c0,1.654,1.346,3,3,3s3-1.346,3-3 c0-0.552,0.448-1,1-1s1,0.448,1,1C61,23.757,58.757,26,56,26z M40,26c-2.757,0-5-2.243-5-5s2.243-5,5-5s5,2.243,5,5 S42.757,26,40,26z M40,18c-1.654,0-3,1.346-3,3s1.346,3,3,3s3-1.346,3-3S41.654,18,40,18z M24,26c-2.757,0-5-2.243-5-5s2.243-5,5-5 s5,2.243,5,5S26.757,26,24,26z M24,18c-1.654,0-3,1.346-3,3s1.346,3,3,3s3-1.346,3-3S25.654,18,24,18z M8,26c-2.757,0-5-2.243-5-5 c0-0.552,0.448-1,1-1s1,0.448,1,1c0,1.654,1.346,3,3,3s3-1.346,3-3c0-0.552,0.448-1,1-1s1,0.448,1,1C13,23.757,10.757,26,8,26z"/></g><g><path fill="#f9dd8f" d="M44,21l-1.333-11H36v11 M60,21l-4-11h-6.667L52,21 M20,21l1.333-11H28v11 M4,21l4-11h6.667L12,21"/><path fill="#8d6c9f" d="M60,22c-0.409,0-0.792-0.252-0.94-0.659L55.3,11h-4.695l2.367,9.765 c0.13,0.537-0.199,1.077-0.736,1.207c-0.537,0.131-1.077-0.199-1.207-0.736l-2.667-11c-0.072-0.298-0.004-0.612,0.186-0.854 C48.737,9.141,49.027,9,49.333,9H56c0.42,0,0.796,0.263,0.94,0.658l4,11c0.188,0.519-0.079,1.093-0.598,1.282 C60.229,21.981,60.114,22,60,22z M4,22c-0.114,0-0.229-0.02-0.342-0.061c-0.519-0.189-0.787-0.763-0.598-1.282l4-11 C7.204,9.263,7.58,9,8,9h6.667c0.307,0,0.596,0.141,0.786,0.382c0.189,0.241,0.258,0.556,0.186,0.854l-2.667,11 c-0.13,0.538-0.669,0.871-1.207,0.736c-0.537-0.13-0.867-0.67-0.736-1.207L13.395,11H8.7L4.94,21.342C4.792,21.748,4.409,22,4,22z M43.999,22c-0.499,0-0.93-0.372-0.991-0.88L41.78,11H37v10c0,0.552-0.448,1-1,1s-1-0.448-1-1V10c0-0.552,0.448-1,1-1h6.667 c0.506,0,0.932,0.377,0.993,0.88l1.333,11c0.066,0.548-0.324,1.046-0.873,1.113C44.08,21.998,44.039,22,43.999,22z M20.001,22 c-0.041,0-0.081-0.002-0.122-0.007c-0.548-0.066-0.939-0.565-0.873-1.113l1.333-11C20.402,9.377,20.828,9,21.333,9H28 c0.552,0,1,0.448,1,1v11c0,0.552-0.448,1-1,1s-1-0.448-1-1V11h-4.78l-1.227,10.12C20.931,21.628,20.5,22,20.001,22z"/></g><g><rect width="46" height="4" x="9" y="35" fill="#fbd"/></g><g><path fill="#ed7899" d="M53.333,5.005H10.667C9.193,5.005,8,6.123,8,7.502V10h48V7.502C56,6.123,54.805,5.005,53.333,5.005"/><path fill="#8d6c9f" d="M56,11H8c-0.552,0-1-0.448-1-1V7.502c0-1.929,1.645-3.498,3.667-3.498h42.667 C55.355,4.005,57,5.574,57,7.502V10C57,10.552,56.552,11,56,11z M9,9h46V7.502c0-0.826-0.748-1.498-1.667-1.498H10.667 C9.748,6.005,9,6.677,9,7.502V9z"/></g><g><path fill="#8d6c9f" d="M22,37c-0.552,0-1,0.448-1,1v2c0,0.552,0.448,1,1,1s1-0.448,1-1v-2C23,37.448,22.552,37,22,37z"/><path fill="#8d6c9f" d="M27,37c-0.552,0-1,0.448-1,1v2c0,0.552,0.448,1,1,1s1-0.448,1-1v-2C28,37.448,27.552,37,27,37z"/><path fill="#8d6c9f" d="M17,37c-0.552,0-1,0.448-1,1v2c0,0.552,0.448,1,1,1s1-0.448,1-1v-2C18,37.448,17.552,37,17,37z"/><path fill="#8d6c9f" d="M12,37c-0.552,0-1,0.448-1,1v2c0,0.552,0.448,1,1,1s1-0.448,1-1v-2C13,37.448,12.552,37,12,37z"/><path fill="#8d6c9f" d="M42,37c-0.552,0-1,0.448-1,1v2c0,0.552,0.448,1,1,1s1-0.448,1-1v-2C43,37.448,42.552,37,42,37z"/><path fill="#8d6c9f" d="M47,37c-0.552,0-1,0.448-1,1v2c0,0.552,0.448,1,1,1s1-0.448,1-1v-2C48,37.448,47.552,37,47,37z"/><path fill="#8d6c9f" d="M52,37c-0.552,0-1,0.448-1,1v2c0,0.552,0.448,1,1,1s1-0.448,1-1v-2C53,37.448,52.552,37,52,37z"/><path fill="#8d6c9f" d="M37,37c-0.552,0-1,0.448-1,1v2c0,0.552,0.448,1,1,1s1-0.448,1-1v-2C38,37.448,37.552,37,37,37z"/><path fill="#8d6c9f" d="M32,37c-0.552,0-1,0.448-1,1v2c0,0.552,0.448,1,1,1s1-0.448,1-1v-2C33,37.448,32.552,37,32,37z"/></g></svg>