<svg xmlns="http://www.w3.org/2000/svg"  viewBox="0 0 64 64" width="64px" height="64px"><path fill="#ed7899" d="M55.84,36.36a3.09,3.09,0,0,0-.65,2.42l.95,6a1,1,0,0,1-.65,1.12l-5.66,2.17a3.09,3.09,0,0,0-1.78,1.77l-2.17,5.66a1,1,0,0,1-1.12.65l-6-.95a3.09,3.09,0,0,0-2.42.65l-4.71,3.81a1,1,0,0,1-1.29,0l-4.71-3.81a3.09,3.09,0,0,0-2.42-.65l-6,.95a1,1,0,0,1-1.12-.65l-2.17-5.66a3.09,3.09,0,0,0-1.77-1.78L6.51,45.89a1,1,0,0,1-.65-1.12l.95-6a3.09,3.09,0,0,0-.65-2.42L2.35,31.65a1,1,0,0,1,0-1.29l3.81-4.71a3.09,3.09,0,0,0,.65-2.42l-.95-6a1,1,0,0,1,.65-1.12l5.66-2.17a3.09,3.09,0,0,0,1.78-1.77l2.17-5.66a1,1,0,0,1,1.12-.65l6,.95a3.09,3.09,0,0,0,2.42-.65l4.71-3.81a1,1,0,0,1,1.29,0h0l4.71,3.81a3.09,3.09,0,0,0,2.42.65l6-.95a1,1,0,0,1,1.12.65l2.17,5.66a3.09,3.09,0,0,0,1.77,1.78l5.66,2.17a1,1,0,0,1,.65,1.12l-.95,6a3.09,3.09,0,0,0,.65,2.42l3.81,4.71a1,1,0,0,1,0,1.29Z"/><path fill="#f283a5" d="M31 12A19 19 0 1 0 31 50A19 19 0 1 0 31 12Z"/><path fill="#8d6c9f" d="M31 48a1 1 0 0 0-1 1v2a1 1 0 0 0 2 0V49A1 1 0 0 0 31 48zM31 14a1 1 0 0 0 1-1V11a1 1 0 0 0-2 0v2A1 1 0 0 0 31 14zM51 30H49a1 1 0 0 0 0 2h2a1 1 0 0 0 0-2zM13 32a1 1 0 0 0 0-2H11a1 1 0 0 0 0 2zM17.56 43l-1.41 1.41a1 1 0 1 0 1.41 1.41L19 44.44A1 1 0 0 0 17.56 43zM43.73 19.27a1 1 0 0 0 .71-.29l1.41-1.41a1 1 0 0 0-1.41-1.41L43 17.56a1 1 0 0 0 .71 1.71zM44.44 43A1 1 0 0 0 43 44.44l1.41 1.41a1 1 0 0 0 1.41-1.41zM17.56 16.15a1 1 0 0 0-1.41 1.41L17.56 19A1 1 0 0 0 19 17.56zM36.62 48.13a1 1 0 0 0-1.93.52l.52 1.93a1 1 0 1 0 1.93-.52zM25.38 13.87a1 1 0 0 0 1.93-.52l-.52-1.93a1 1 0 1 0-1.93.52zM47.42 26.6a1 1 0 0 0 1.22.71l1.93-.52a1 1 0 1 0-.52-1.93l-1.93.52A1 1 0 0 0 47.42 26.6zM14.58 35.4a1 1 0 0 0-1.22-.71l-1.93.52a1 1 0 1 0 .52 1.93l1.93-.52A1 1 0 0 0 14.58 35.4zM22.5 45.72a1 1 0 0 0-1.37.37l-1 1.73a1 1 0 0 0 1.73 1l1-1.73A1 1 0 0 0 22.5 45.72zM41.5 12.81a1 1 0 0 0-1.37.37l-1 1.73a1 1 0 0 0 1.73 1l1-1.73A1 1 0 0 0 41.5 12.81zM48.82 40.13l-1.73-1a1 1 0 1 0-1 1.73l1.73 1a1 1 0 0 0 1-1.73zM13.18 21.87l1.73 1a1 1 0 0 0 1-1.73l-1.73-1a1 1 0 1 0-1 1.73zM40.87 46.09a1 1 0 0 0-1.73 1l1 1.73a1 1 0 1 0 1.73-1zM21.13 15.91a1 1 0 0 0 1.73-1l-1-1.73a1 1 0 0 0-1.73 1zM45.72 22.5a1 1 0 0 0 1.37.37l1.73-1a1 1 0 1 0-1-1.73l-1.73 1A1 1 0 0 0 45.72 22.5zM16.28 39.5a1 1 0 0 0-1.37-.37l-1.73 1a1 1 0 0 0 1 1.73l1.73-1A1 1 0 0 0 16.28 39.5zM26.6 47.42a1 1 0 0 0-1.22.71l-.52 1.93a1 1 0 1 0 1.93.52l.52-1.93A1 1 0 0 0 26.6 47.42zM35.4 14.58a1 1 0 0 0 1.22-.71l.52-1.93a1 1 0 1 0-1.93-.52l-.52 1.93A1 1 0 0 0 35.4 14.58zM50.58 35.21l-1.93-.52a1 1 0 0 0-.52 1.93l1.93.52a1 1 0 1 0 .52-1.93zM11.42 26.79l1.93.52a1 1 0 0 0 .52-1.93l-1.93-.52a1 1 0 1 0-.52 1.93z"/><path fill="#8d6c9f" d="M60.42,32.89a3,3,0,0,0,0-3.78l-3.71-4.58a1,1,0,0,1-.21-.79l.92-5.82a3,3,0,0,0-1.89-3.27L50,12.54a1,1,0,0,1-.58-.58l-2.11-5.5a3,3,0,0,0-3.27-1.89l-5.82.92a1,1,0,0,1-.79-.21L32.89,1.58h0a3,3,0,0,0-3.78,0L24.53,5.29a1,1,0,0,1-.79.21l-5.82-.92a3,3,0,0,0-3.27,1.89L12.54,12a1,1,0,0,1-.58.58l-5.5,2.11a3,3,0,0,0-1.89,3.27l.92,5.82a1,1,0,0,1-.21.79L1.58,29.11a3,3,0,0,0,0,3.78l3.71,4.58a1,1,0,0,1,.21.79l-.92,5.82a3,3,0,0,0,1.89,3.27L12,49.46a1,1,0,0,1,.58.58l2.11,5.5a3,3,0,0,0,3.27,1.89l5.82-.92a1,1,0,0,1,.79.21l4.58,3.71a3,3,0,0,0,3.78,0l4.58-3.71a1,1,0,0,1,.79-.21l5.82.92a3,3,0,0,0,3.27-1.89L49.46,50a1,1,0,0,1,.58-.58l5.5-2.11a3,3,0,0,0,1.89-3.27l-.92-5.82a1,1,0,0,1,.21-.79Zm-5.26,3.32a3,3,0,0,0-.63,2.36l.92,5.82a1,1,0,0,1-.63,1.09l-5.5,2.11a3,3,0,0,0-1.73,1.73l-2.11,5.5a1,1,0,0,1-1.09.63l-5.82-.92a3,3,0,0,0-2.36.63l-4.58,3.71a1,1,0,0,1-1.26,0l-4.58-3.71a3,3,0,0,0-2.36-.63l-5.82.92a1,1,0,0,1-1.09-.63l-2.11-5.5a3,3,0,0,0-1.73-1.73l-5.5-2.11a1,1,0,0,1-.63-1.09l.92-5.82a3,3,0,0,0-.63-2.36L3.13,31.63a1,1,0,0,1,0-1.26l3.71-4.58a3,3,0,0,0,.63-2.36l-.92-5.82a1,1,0,0,1,.63-1.09l5.5-2.11a3,3,0,0,0,1.73-1.73l2.11-5.5a1,1,0,0,1,1.09-.63l5.82.92a3,3,0,0,0,2.36-.63l4.58-3.71a1,1,0,0,1,1.26,0h0l4.58,3.71a3,3,0,0,0,2.36.63l5.82-.92a1,1,0,0,1,1.09.63l2.11,5.5a3,3,0,0,0,1.73,1.73l5.5,2.11a1,1,0,0,1,.63,1.09l-.92,5.82a3,3,0,0,0,.63,2.36l3.71,4.58a1,1,0,0,1,0,1.26Z"/><path fill="#f9efde" d="M28 27V24a3 3 0 0 0-3-3H24a3 3 0 0 0-3 3v3a3 3 0 0 0 3 3h1A3 3 0 0 0 28 27zm-5 0V24a1 1 0 0 1 1-1h1a1 1 0 0 1 1 1v3a1 1 0 0 1-1 1H24A1 1 0 0 1 23 27zM40 38V35a3 3 0 0 0-3-3H36a3 3 0 0 0-3 3v3a3 3 0 0 0 3 3h1A3 3 0 0 0 40 38zm-2 0a1 1 0 0 1-1 1H36a1 1 0 0 1-1-1V35a1 1 0 0 1 1-1h1a1 1 0 0 1 1 1zM25.89 42.46l11-22a1 1 0 0 0-1.77-.93l-11 22a1 1 0 0 0 1.77.93z"/></svg>