<svg xmlns="http://www.w3.org/2000/svg"  viewBox="0 0 64 64" width="64px" height="64px"><polygon fill="#f9dd8f" points="49.862,24.183 59,19.866 46.854,18.788 54.584,11.236 44.013,13.666 47.958,4.961 39.024,9.374 39.024,1.041 33.052,8.197 27.08,1.041 27.08,9.374 18.146,4.961 22.263,13.959 10.416,11.236 18.146,18.788 6,19.866 16.141,24.183 7.104,30.656 17.346,30.557 14.833,36.05 29.187,30.656 35.813,30.656 50.166,36.05 47.654,30.557 57.896,30.656"/><path fill="#8d6c9f" d="M14.833,37.05c-0.272,0-0.539-0.111-0.731-0.318c-0.276-0.296-0.346-0.73-0.178-1.098l1.858-4.062 l-8.668,0.083c-0.003,0-0.007,0-0.01,0c-0.433,0-0.816-0.278-0.951-0.689c-0.135-0.415,0.014-0.87,0.368-1.124l7.59-5.437 l-8.503-3.62c-0.422-0.179-0.668-0.623-0.596-1.076s0.442-0.799,0.899-0.84l9.981-0.887l-6.175-6.033 c-0.321-0.313-0.394-0.801-0.179-1.195c0.214-0.393,0.664-0.597,1.102-0.495l9.869,2.269l-3.272-7.153 c-0.176-0.385-0.091-0.839,0.213-1.134c0.304-0.294,0.759-0.367,1.139-0.179l7.491,3.7V1.041c0-0.421,0.264-0.797,0.659-0.94 c0.395-0.144,0.838-0.024,1.108,0.299l5.205,6.236l5.204-6.236c0.27-0.324,0.714-0.442,1.108-0.299 c0.396,0.143,0.659,0.519,0.659,0.94v6.723l7.491-3.7c0.379-0.188,0.834-0.116,1.138,0.178c0.304,0.294,0.39,0.747,0.215,1.131 l-3.111,6.865l8.602-1.978c0.437-0.102,0.887,0.102,1.102,0.495c0.215,0.394,0.142,0.882-0.179,1.195l-6.175,6.033l9.981,0.887 c0.45,0.04,0.817,0.376,0.896,0.821s-0.149,0.887-0.557,1.08l-7.695,3.635l6.791,5.471c0.332,0.267,0.458,0.715,0.314,1.116 c-0.143,0.397-0.52,0.663-0.941,0.663c-0.003,0-0.006,0-0.01,0l-8.668-0.083l1.857,4.062c0.168,0.369,0.098,0.802-0.178,1.098 c-0.276,0.297-0.706,0.396-1.083,0.254l-14.353-5.394c-0.39-0.146-5.533-0.146-5.923,0l-14.354,5.394 C15.07,37.029,14.951,37.05,14.833,37.05z M36.813,29.963l11.436,4.297l-1.504-3.288c-0.142-0.311-0.115-0.673,0.071-0.96 c0.186-0.288,0.505-0.467,0.849-0.456l7.362,0.071l-5.792-4.666c-0.268-0.216-0.406-0.555-0.366-0.897 c0.041-0.342,0.255-0.639,0.566-0.786l5.806-2.742l-8.475-0.753c-0.389-0.035-0.722-0.292-0.854-0.66s-0.036-0.778,0.243-1.051 l5.184-5.064l-7.102,1.633c-0.373,0.087-0.757-0.047-0.998-0.341c-0.241-0.294-0.294-0.7-0.137-1.046l2.79-6.157l-6.425,3.174 c-0.31,0.154-0.676,0.135-0.971-0.047c-0.293-0.183-0.472-0.504-0.472-0.85V3.8L33.82,8.838c-0.38,0.455-1.155,0.456-1.535,0 L28.08,3.8v5.574c0,0.346-0.179,0.667-0.472,0.85c-0.294,0.182-0.66,0.201-0.971,0.047l-6.411-3.167l2.946,6.439 c0.159,0.346,0.106,0.752-0.134,1.048c-0.241,0.295-0.628,0.427-1,0.343l-8.377-1.926l5.184,5.064 c0.279,0.273,0.375,0.684,0.243,1.051s-0.464,0.625-0.854,0.66l-8.171,0.726l6.469,2.753c0.333,0.141,0.563,0.451,0.603,0.811 s-0.118,0.712-0.412,0.922l-6.463,4.629l7.076-0.068c0.356-0.028,0.662,0.168,0.849,0.456c0.186,0.287,0.213,0.649,0.07,0.96 l-1.504,3.288l11.436-4.297H36.813z"/><path fill="#c4939c" d="M28,63.041V47.422l-0.554-0.276c-2.421-1.206-3.917-2.871-4.21-4.69 c-0.21-1.307,0.147-2.665,0.891-3.377l1.403-1.347l-1.547-1.183C21.71,34.808,19,32.158,19,29.421 c0-2.613,1.678-4.878,4.604-6.213c1.47-0.777,5.076-1.282,9.028-1.282c4.566,0,7.777,0.621,8.934,1.236 C44.485,24.497,46,26.648,46,29.407c0,3.221-3.769,6.36-4.924,7.246l-1.339,1.024l1.033,1.325 c0.708,0.909,0.974,2.223,0.709,3.514c-0.206,1.003-0.998,2.944-3.978,4.658L37,47.463v15.579H28z"/><path fill="#8d6c9f" d="M46.98,28.831c-0.2-2.87-1.93-5.17-4.94-6.55c-1.49-0.79-4.94-1.31-8.89-1.35 c-0.26-0.01-0.52-0.01-0.78-0.01c-0.17,0-0.35,0-0.52,0.01c-3.84,0.06-7.18,0.58-8.66,1.37c-3.08,1.4-4.93,3.76-5.17,6.53 c-0.01,0.19-0.02,0.38-0.02,0.58c0,0.01,0,0.01,0,0.02c0,0.16,0.01,0.32,0.02,0.48c0.01,0.06,0.02,0.11,0.02,0.17 c0.02,0.17,0.05,0.34,0.09,0.5c0.59,2.69,3.1,5.12,5.24,6.76l0.63,0.48l-0.45,0.42l-0.12,0.12c-0.98,0.94-1.45,2.61-1.18,4.25 c0.32,2,1.78,3.71,3.92,4.98c0.26,0.16,0.54,0.31,0.83,0.45v15c0,0.55,0.45,1,1,1h9c0.55,0,1-0.45,1-1v-15 c3.06-1.76,4.16-3.86,4.46-5.32c0.32-1.58-0.02-3.2-0.9-4.33l-0.11-0.15l-0.3-0.38l0.53-0.41c1.42-1.09,4.52-3.77,5.19-6.87 c0.04-0.16,0.07-0.33,0.09-0.5c0.01-0.06,0.01-0.12,0.02-0.17c0.01-0.16,0.02-0.32,0.02-0.48v-0.01 C47,29.221,46.99,29.021,46.98,28.831z M36.87,46.391c-0.54,0.37-0.87,0.99-0.87,1.65v14h-7v-14c0-0.66-0.33-1.28-0.87-1.65 L28,46.311c-0.04-0.02-0.08-0.04-0.11-0.06c-1.05-0.52-1.9-1.14-2.53-1.81c-0.62-0.68-1.02-1.4-1.14-2.14 c-0.18-1.15,0.18-2.1,0.6-2.5l0.2-0.19l0.01-0.01l0.35-0.34l1.68-1.61l-1.85-1.42l-0.62-0.48c-2.03-1.55-3.44-3.1-4.12-4.51 c-0.05-0.09-0.09-0.19-0.13-0.28c-0.07-0.17-0.14-0.35-0.19-0.53c-0.03-0.11-0.05-0.21-0.07-0.31c-0.02-0.1-0.04-0.2-0.05-0.3 c-0.02-0.14-0.03-0.27-0.03-0.4v-0.01c0-0.14,0-0.28,0.02-0.41c0.16-2.05,1.57-3.77,4-4.88l0.05-0.03l0.06-0.03 c0.97-0.51,3.75-1.07,7.69-1.13c0.18-0.01,0.36-0.01,0.55-0.01c0.27,0,0.54,0,0.81,0.01c3.91,0.04,6.92,0.58,7.92,1.11l0.05,0.03 l0.06,0.03c1.65,0.75,3.6,2.2,3.77,4.9c0.01,0.14,0.02,0.28,0.02,0.42c0,0.13-0.01,0.27-0.03,0.4c-0.01,0.1-0.02,0.2-0.05,0.3 c-0.02,0.1-0.04,0.2-0.07,0.31c-0.05,0.17-0.12,0.35-0.19,0.53c-0.04,0.1-0.08,0.19-0.13,0.28c-0.78,1.69-2.46,3.39-4.06,4.62 l-0.54,0.41l-1.6,1.23l1.24,1.59l0.4,0.51l0.01,0.01c0.52,0.68,0.72,1.71,0.52,2.7c-0.17,0.83-0.84,2.43-3.39,3.94L36.87,46.391z"/><circle cx="33" cy="22.041" r="9" fill="#85cbf8"/><path fill="#e3f2ff" d="M32.968,13.041c-4.78,0.017-8.823,3.95-8.964,8.728c-0.028,0.95,0.091,1.869,0.337,2.734 c0.232,0.819,1.165,1.211,1.903,0.787l0,0c1.147-0.659,1.762-1.905,1.757-3.228c0-0.007,0-0.014,0-0.021 c0-2.389,1.683-4.391,3.926-4.884l0.222-0.046c1.203-0.25,2.16-1.162,2.467-2.351v0c0.218-0.846-0.401-1.68-1.274-1.712 C33.217,13.043,33.093,13.041,32.968,13.041z"/><path fill="#85cbf8" d="M28.234,20.525c0.166-0.52,0.42-1.022,0.766-1.484c0.392-0.522,0.866-0.946,1.391-1.267"/><path fill="#8d6c9f" d="M28.234,21.526c-0.101,0-0.203-0.016-0.304-0.047c-0.526-0.167-0.817-0.73-0.65-1.256 c0.204-0.64,0.513-1.239,0.919-1.781c0.458-0.612,1.021-1.124,1.669-1.52c0.471-0.288,1.087-0.14,1.375,0.332 c0.288,0.471,0.14,1.087-0.332,1.375c-0.432,0.264-0.806,0.605-1.112,1.014c-0.272,0.362-0.478,0.762-0.613,1.188 C29.052,21.254,28.658,21.526,28.234,21.526z"/><path fill="#8d6c9f" d="M32.999,44.041c-0.201,0-0.404-0.061-0.58-0.187l-2-1.429c-0.45-0.321-0.554-0.945-0.232-1.395 c0.32-0.45,0.945-0.554,1.395-0.232l2,1.429c0.45,0.321,0.554,0.945,0.232,1.395C33.619,43.896,33.311,44.041,32.999,44.041z"/><path fill="#8d6c9f" d="M38.999,38.041c-0.201,0-0.404-0.061-0.58-0.187l-2-1.429c-0.45-0.321-0.554-0.945-0.232-1.395 c0.32-0.45,0.945-0.554,1.395-0.232l2,1.429c0.45,0.321,0.554,0.945,0.232,1.395C39.619,37.896,39.311,38.041,38.999,38.041z"/><path fill="#8d6c9f" d="M27.999,40.47c-0.201,0-0.404-0.061-0.58-0.187l-2-1.429c-0.45-0.321-0.554-0.945-0.232-1.395 c0.32-0.45,0.945-0.554,1.395-0.232l2,1.429c0.45,0.321,0.554,0.945,0.232,1.395C28.619,40.324,28.311,40.47,27.999,40.47z"/><g><path fill="#8d6c9f" d="M33,32.041c-5.514,0-10-4.486-10-10s4.486-10,10-10s10,4.486,10,10S38.514,32.041,33,32.041z M33,14.041c-4.411,0-8,3.589-8,8s3.589,8,8,8s8-3.589,8-8S37.411,14.041,33,14.041z"/></g></svg>