<svg xmlns="http://www.w3.org/2000/svg"  viewBox="0 0 64 64" width="64px" height="64px"><rect width="54" height="10" x="5" y="13" fill="#fbf0de"/><rect width="50" height="34" x="7" y="23" fill="#efd8be"/><rect width="6" height="44" x="29" y="13" fill="#f283a5"/><path fill="#8d6c9f" d="M51,24h-4c-0.553,0-1-0.447-1-1s0.447-1,1-1h4c0.553,0,1,0.447,1,1S51.553,24,51,24z"/><path fill="#8d6c9f" d="M59,24h-4c-0.553,0-1-0.447-1-1s0.447-1,1-1h3v-8H6v8h37c0.553,0,1,0.447,1,1s-0.447,1-1,1H5 c-0.553,0-1-0.447-1-1V13c0-0.553,0.447-1,1-1h54c0.553,0,1,0.447,1,1v10C60,23.553,59.553,24,59,24z"/><path fill="#8d6c9f" d="M57,58H7c-0.553,0-1-0.447-1-1V23c0-0.553,0.447-1,1-1s1,0.447,1,1v33h48V23c0-0.553,0.447-1,1-1 s1,0.447,1,1v34C58,57.553,57.553,58,57,58z"/><path fill="#8d6c9f" d="M32,14c-0.153,0-0.307-0.035-0.447-0.105l-10-5c-0.494-0.247-0.694-0.848-0.447-1.342 c0.248-0.494,0.848-0.692,1.342-0.447L32,11.882l9.553-4.776c0.495-0.245,1.094-0.047,1.342,0.447 c0.247,0.494,0.047,1.095-0.447,1.342l-10,5C32.307,13.965,32.153,14,32,14z"/><path fill="#8d6c9f" d="M32,14c-0.379,0-0.725-0.214-0.895-0.553l-5-10c-0.247-0.494-0.047-1.095,0.447-1.342 c0.493-0.246,1.094-0.047,1.342,0.447L32,10.764l4.105-8.211c0.248-0.494,0.847-0.693,1.342-0.447 c0.494,0.247,0.694,0.848,0.447,1.342l-5,10C32.725,13.786,32.379,14,32,14z"/><path fill="#8d6c9f" d="M29,58c-0.553,0-1-0.447-1-1V13c0-0.553,0.447-1,1-1s1,0.447,1,1v44C30,57.553,29.553,58,29,58z"/><path fill="#8d6c9f" d="M35,58c-0.553,0-1-0.447-1-1v-3c0-0.553,0.447-1,1-1s1,0.447,1,1v3C36,57.553,35.553,58,35,58z"/><path fill="#8d6c9f" d="M35,27c-0.553,0-1-0.447-1-1V13c0-0.553,0.447-1,1-1s1,0.447,1,1v13C36,26.553,35.553,27,35,27z"/><path fill="#8d6c9f" d="M37,34.986c0-0.554-0.447-1.001-1-1.001h-2c-0.553,0-1,0.448-1,1.001s0.447,1.001,1,1.001h2 C36.552,35.987,37,35.539,37,34.986z M37,30.001C37,29.448,36.553,29,36,29h-2c-0.553,0-1,0.448-1,1.001s0.447,1.001,1,1.001h2 C36.552,31.003,37,30.555,37,30.001z M37,39.993c0-0.554-0.447-1.001-1-1.001h-2c-0.553,0-1,0.448-1,1.001s0.447,1.001,1,1.001h2 C36.552,40.994,37,40.547,37,39.993z M37,45c0-0.554-0.447-1.001-1-1.001h-2c-0.553,0-1,0.448-1,1.001c0,0.554,0.447,1.001,1,1.001 h2C36.552,46.001,37,45.554,37,45z M37,50.007c0-0.554-0.447-1.001-1-1.001h-2c-0.553,0-1,0.448-1,1.001 c0,0.554,0.447,1.001,1,1.001h2C36.552,51.009,37,50.561,37,50.007z"/></svg>