<svg xmlns="http://www.w3.org/2000/svg"  viewBox="0 0 64 64" width="64px" height="64px"><path fill="#ed7899" d="M56.84,37.36a3.09,3.09,0,0,0-.65,2.42l.95,6a1,1,0,0,1-.65,1.12l-5.66,2.17a3.09,3.09,0,0,0-1.78,1.77l-2.17,5.66a1,1,0,0,1-1.12.65l-6-.95a3.09,3.09,0,0,0-2.42.65l-4.71,3.81a1,1,0,0,1-1.29,0l-4.71-3.81a3.09,3.09,0,0,0-2.42-.65l-6,.95a1,1,0,0,1-1.12-.65l-2.17-5.66a3.09,3.09,0,0,0-1.77-1.78L7.51,46.89a1,1,0,0,1-.65-1.12l.95-6a3.09,3.09,0,0,0-.65-2.42L3.35,32.65a1,1,0,0,1,0-1.29l3.81-4.71a3.09,3.09,0,0,0,.65-2.42l-.95-6a1,1,0,0,1,.65-1.12l5.66-2.17a3.09,3.09,0,0,0,1.78-1.77l2.17-5.66a1,1,0,0,1,1.12-.65l6,.95a3.09,3.09,0,0,0,2.42-.65l4.71-3.81a1,1,0,0,1,1.29,0h0l4.71,3.81a3.09,3.09,0,0,0,2.42.65l6-.95a1,1,0,0,1,1.12.65l2.17,5.66a3.09,3.09,0,0,0,1.77,1.78l5.66,2.17a1,1,0,0,1,.65,1.12l-.95,6a3.09,3.09,0,0,0,.65,2.42l3.81,4.71a1,1,0,0,1,0,1.29Z"/><path fill="#f283a5" d="M32 13A19 19 0 1 0 32 51A19 19 0 1 0 32 13Z"/><path fill="#8d6c9f" d="M32 49a1 1 0 0 0-1 1v2a1 1 0 0 0 2 0V50A1 1 0 0 0 32 49zM32 15a1 1 0 0 0 1-1V12a1 1 0 0 0-2 0v2A1 1 0 0 0 32 15zM18.56 44l-1.41 1.41a1 1 0 1 0 1.41 1.41L20 45.44A1 1 0 0 0 18.56 44zM44.73 20.27a1 1 0 0 0 .71-.29l1.41-1.41a1 1 0 0 0-1.41-1.41L44 18.56a1 1 0 0 0 .71 1.71zM45.44 44A1 1 0 0 0 44 45.44l1.41 1.41a1 1 0 0 0 1.41-1.41zM18.56 20A1 1 0 0 0 20 18.56l-1.41-1.41a1 1 0 0 0-1.41 1.41zM37.62 49.13a1 1 0 0 0-1.93.52l.52 1.93a1 1 0 1 0 1.93-.52zM26.38 14.87a1 1 0 0 0 1.93-.52l-.52-1.93a1 1 0 1 0-1.93.52zM23.5 46.72a1 1 0 0 0-1.37.37l-1 1.73a1 1 0 0 0 1.73 1l1-1.73A1 1 0 0 0 23.5 46.72zM40.5 17.28a1 1 0 0 0 1.37-.37l1-1.73a1 1 0 1 0-1.73-1l-1 1.73A1 1 0 0 0 40.5 17.28zM41.87 47.09a1 1 0 0 0-1.73 1l1 1.73a1 1 0 1 0 1.73-1zM22.87 14.18a1 1 0 0 0-1.73 1l1 1.73a1 1 0 0 0 1.73-1zM27.6 48.42a1 1 0 0 0-1.22.71l-.52 1.93a1 1 0 1 0 1.93.52l.52-1.93A1 1 0 0 0 27.6 48.42zM36.4 15.58a1 1 0 0 0 1.22-.71l.52-1.93a1 1 0 1 0-1.93-.52l-.52 1.93A1 1 0 0 0 36.4 15.58z"/><path fill="#8d6c9f" d="M61.42,33.89a3,3,0,0,0,0-3.78l-3.71-4.58a1,1,0,0,1-.21-.79l.92-5.82a3,3,0,0,0-1.89-3.27L51,13.54a1,1,0,0,1-.58-.58l-2.11-5.5a3,3,0,0,0-3.27-1.89l-5.82.92a1,1,0,0,1-.79-.21L33.89,2.58h0a3,3,0,0,0-3.78,0L25.53,6.29a1,1,0,0,1-.79.21l-5.82-.92a3,3,0,0,0-3.27,1.89L13.54,13a1,1,0,0,1-.58.58l-5.5,2.11a3,3,0,0,0-1.89,3.27l.92,5.82a1,1,0,0,1-.21.79L2.58,30.11a3,3,0,0,0,0,3.78l3.71,4.58a1,1,0,0,1,.21.79l-.92,5.82a3,3,0,0,0,1.89,3.27L13,50.46a1,1,0,0,1,.58.58l2.11,5.5a3,3,0,0,0,3.27,1.89l5.82-.92a1,1,0,0,1,.79.21l4.58,3.71a3,3,0,0,0,3.78,0l4.58-3.71a1,1,0,0,1,.79-.21l5.82.92a3,3,0,0,0,3.27-1.89L50.46,51a1,1,0,0,1,.58-.58l5.5-2.11a3,3,0,0,0,1.89-3.27l-.92-5.82a1,1,0,0,1,.21-.79Zm-5.26,3.32a3,3,0,0,0-.63,2.36l.92,5.82a1,1,0,0,1-.63,1.09l-5.5,2.11a3,3,0,0,0-1.73,1.73l-2.11,5.5a1,1,0,0,1-1.09.63l-5.82-.92a3,3,0,0,0-2.36.63l-4.58,3.71a1,1,0,0,1-1.26,0l-4.58-3.71a3,3,0,0,0-2.36-.63l-5.82.92a1,1,0,0,1-1.09-.63l-2.11-5.5a3,3,0,0,0-1.73-1.73l-5.5-2.11a1,1,0,0,1-.63-1.09l.92-5.82a3,3,0,0,0-.63-2.36L4.13,32.63a1,1,0,0,1,0-1.26l3.71-4.58a3,3,0,0,0,.63-2.36l-.92-5.82a1,1,0,0,1,.63-1.09l5.5-2.11a3,3,0,0,0,1.73-1.73l2.11-5.5a1,1,0,0,1,1.09-.63l5.82.92a3,3,0,0,0,2.36-.63l4.58-3.71a1,1,0,0,1,1.26,0h0l4.58,3.71a3,3,0,0,0,2.36.63l5.82-.92a1,1,0,0,1,1.09.63l2.11,5.5a3,3,0,0,0,1.73,1.73l5.5,2.11a1,1,0,0,1,.63,1.09l-.92,5.82a3,3,0,0,0,.63,2.36l3.71,4.58a1,1,0,0,1,0,1.26Z"/><path fill="#f9efde" d="M34 26a1 1 0 0 0 0-2H27a1 1 0 0 0-1 1V39a1 1 0 0 0 1 1h7a1 1 0 0 0 0-2H28V32h5a1 1 0 0 0 0-2H28V26zM22 39V25a1 1 0 0 0-2 0V35.23L13.87 24.5A1 1 0 0 0 12 25V39a1 1 0 0 0 2 0V28.77L20.13 39.5A1 1 0 0 0 21 40a1 1 0 0 0 1-1zM51.21 24a1 1 0 0 0-1.19.77l-2.1 9.79-2-7.82a1 1 0 0 0-1.94 0l-2 7.82L40 24.79a1 1 0 0 0-2 .42l3 14A1 1 0 0 0 42 40a1 1 0 0 0 1-.76l2-8.12 2 8.12A1 1 0 0 0 48 40h0a1 1 0 0 0 1-.79l3-14A1 1 0 0 0 51.21 24z"/></svg>