<svg xmlns="http://www.w3.org/2000/svg"  viewBox="0 0 64 64" width="64px" height="64px"><path fill="#c5e4fa" d="M49.46 38.27L58.93 54.66 49.5 54.33 45.07 62.66 35.53 46.14M14.54 38.27L5.07 54.66 14.5 54.33 18.93 62.66 28.47 46.14"/><path fill="#a2ceea" d="M49.46 38.27L35.53 46.14 37.74 50l.85-.69a2 2 0 0 1 1.57-.42l4.24.67a2 2 0 0 0 2.18-1.26l1.54-4a2 2 0 0 1 1.15-1.15l2.45-.94zM12.28 42.18l2.45.94a2 2 0 0 1 1.15 1.15l1.54 4a2 2 0 0 0 2.18 1.26l4.24-.67a2 2 0 0 1 1.57.42l.85.69 2.21-3.83L14.54 38.27z"/><path fill="#f6d397" d="M33.26,2l3.33,2.7a2,2,0,0,0,1.57.42l4.24-.67a2,2,0,0,1,2.18,1.26l1.54,4a2,2,0,0,0,1.15,1.15l4,1.54a2,2,0,0,1,1.26,2.18l-.67,4.24a2,2,0,0,0,.42,1.57L55,23.74a2,2,0,0,1,0,2.52l-2.7,3.33a2,2,0,0,0-.42,1.57l.67,4.24a2,2,0,0,1-1.26,2.18l-4,1.54a2,2,0,0,0-1.15,1.15l-1.54,4a2,2,0,0,1-2.18,1.26l-4.24-.67a2,2,0,0,0-1.57.42L33.26,48a2,2,0,0,1-2.52,0l-3.33-2.7a2,2,0,0,0-1.57-.42l-4.24.67a2,2,0,0,1-2.18-1.26l-1.54-4a2,2,0,0,0-1.15-1.15l-4-1.54a2,2,0,0,1-1.26-2.18l.67-4.24a2,2,0,0,0-.42-1.57L9,26.26a2,2,0,0,1,0-2.52l2.7-3.33a2,2,0,0,0,.42-1.57l-.67-4.24a2,2,0,0,1,1.26-2.18l4-1.54a2,2,0,0,0,1.15-1.15l1.54-4A2,2,0,0,1,21.6,4.47l4.24.67a2,2,0,0,0,1.57-.42L30.74,2A2,2,0,0,1,33.26,2Z"/><path fill="#f9e3ae" d="M47,25A15,15,0,0,1,32,40a14.82,14.82,0,0,1-4.93-.83,15,15,0,0,1-6.76-4.79,15,15,0,0,1-1.8-2.82A15.34,15.34,0,0,1,17,25,15,15,0,0,1,32,10a15.34,15.34,0,0,1,6.57,1.51,15,15,0,0,1,2.82,1.8,15,15,0,0,1,4.79,6.76A14.82,14.82,0,0,1,47,25Z"/><path fill="#ffefca" d="M47 25A15 15 0 0 1 32 40a14.82 14.82 0 0 1-4.93-.83l19.1-19.1A14.82 14.82 0 0 1 47 25zM44.66 17L24 37.66a14.54 14.54 0 0 1-3.65-3.28L41.38 13.31A14.54 14.54 0 0 1 44.66 17zM38.57 11.51L18.51 31.57a14.79 14.79 0 0 1-1.35-4.42l17-17A14.78 14.78 0 0 1 38.57 11.51z"/><path fill="#fff8f8" d="M40.66 20.76L39.42 23.02 37.16 24.26 39.42 25.5 40.66 27.77 41.9 25.5 44.16 24.26 41.9 23.02 40.66 20.76zM25.74 15.77L24.89 17.33 23.32 18.18 24.89 19.04 25.74 20.6 26.6 19.04 28.16 18.18 26.6 17.33 25.74 15.77zM24.81 28.47L24.23 29.54 23.16 30.12 24.23 30.7 24.81 31.77 25.39 30.7 26.46 30.12 25.39 29.54 24.81 28.47z"/><path fill="#8d6c9f" d="M59.79,54.16,50.92,38.79l.71-.27a3,3,0,0,0,1.89-3.27L52.85,31a1,1,0,0,1,.21-.79l2.7-3.33a3,3,0,0,0,0-3.78l-2.7-3.33a1,1,0,0,1-.21-.79l.67-4.24a3,3,0,0,0-1.89-3.27l-4-1.54a1,1,0,0,1-.58-.58l-1.54-4a3,3,0,0,0-3.27-1.89L38,4.15a1,1,0,0,1-.79-.21l-3.33-2.7h0a3,3,0,0,0-3.78,0l-3.33,2.7a1,1,0,0,1-.79.21l-4.24-.67a3,3,0,0,0-3.27,1.89l-1.54,4a1,1,0,0,1-.58.58l-4,1.54a3,3,0,0,0-1.89,3.27L11.15,19a1,1,0,0,1-.21.79l-2.7,3.33a3,3,0,0,0,0,3.78l2.7,3.33a1,1,0,0,1,.21.79l-.67,4.24a3,3,0,0,0,1.89,3.27l.71.27L4.21,54.16a1,1,0,0,0,.9,1.5l8.8-.31L18,63.13a1,1,0,0,0,.87.53h0a1,1,0,0,0,.87-.5l9-15.51,1.36,1.1a3,3,0,0,0,3.78,0l1.36-1.1,9,15.51a1,1,0,0,0,.87.5h0a1,1,0,0,0,.87-.53l4.14-7.78,8.8.31a1,1,0,0,0,.89-.48A1,1,0,0,0,59.79,54.16ZM19,60.6l-3.58-6.74a1,1,0,0,0-.92-.53l-7.63.27L15,39.51l1.4.54a1,1,0,0,1,.58.58l1.54,4a3,3,0,0,0,3.27,1.89L26,45.85a1,1,0,0,1,.79.21l.4.32ZM32.63,47.2a1,1,0,0,1-1.26,0L28,44.5a3,3,0,0,0-2.36-.63l-4.24.67a1,1,0,0,1-1.09-.63l-1.54-4a3,3,0,0,0-1.73-1.73l-4-1.54a1,1,0,0,1-.63-1.09l.67-4.24A3,3,0,0,0,12.5,29L9.8,25.63a1,1,0,0,1,0-1.26L12.5,21a3,3,0,0,0,.63-2.36l-.67-4.24a1,1,0,0,1,.63-1.09l4-1.54a3,3,0,0,0,1.73-1.73l1.54-4a1,1,0,0,1,1.09-.63l4.24.67A3,3,0,0,0,28,5.5l3.33-2.7a1,1,0,0,1,1.26,0L36,5.5a3,3,0,0,0,2.36.63l4.24-.67a1,1,0,0,1,1.09.63l1.54,4a3,3,0,0,0,1.73,1.73l4,1.54a1,1,0,0,1,.63,1.09l-.67,4.24A3,3,0,0,0,51.5,21l2.7,3.33a1,1,0,0,1,0,1.26L51.5,29a3,3,0,0,0-.63,2.36l.67,4.24a1,1,0,0,1-.63,1.09l-4,1.54a3,3,0,0,0-1.73,1.73l-1.54,4a1,1,0,0,1-1.09.63l-4.24-.67A3,3,0,0,0,36,44.5Zm16.9,6.13a1,1,0,0,0-.92.53L45,60.6,36.82,46.38l.4-.32a1,1,0,0,1,.79-.21l4.24.67a3,3,0,0,0,3.27-1.89l1.54-4a1,1,0,0,1,.58-.58l1.4-.54L57.16,53.6Z"/><path fill="#8d6c9f" d="M40.19 34.78a1 1 0 0 0-1.41 1.41l1.41 1.41a1 1 0 0 0 1.41-1.41zM21.81 34.78l-1.41 1.41a1 1 0 1 0 1.41 1.41l1.41-1.41a1 1 0 0 0-1.41-1.41zM31 38a1 1 0 0 0-1 1v2a1 1 0 0 0 2 0V39A1 1 0 0 0 31 38zM26.7 37.13a1 1 0 0 0-1.31.53l-.78 1.84a1 1 0 1 0 1.84.78l.78-1.84A1 1 0 0 0 26.7 37.13zM20.8 31.12a1 1 0 0 0-1.3-.55l-1.85.75a1 1 0 1 0 .75 1.85l1.85-.75A1 1 0 0 0 20.8 31.12zM36.62 40.91a1 1 0 0 0 .55-1.3l-.75-1.85a1 1 0 0 0-1.85.75l.75 1.85a1 1 0 0 0 1.3.55zM33.16 11a1 1 0 0 0 .17-2C32.89 9 32.45 9 32 9A16 16 0 0 0 16 25q0 .5 0 1a1 1 0 0 0 1 .94h.06A1 1 0 0 0 18 25.88q0-.44 0-.88A14 14 0 0 1 32 11Q32.59 11 33.16 11zM46 25a14 14 0 0 1-1.61 6.52 1 1 0 0 0 1.77.93 16 16 0 0 0-2.16-18 1 1 0 1 0-1.5 1.32A14 14 0 0 1 46 25zM37.68 12.2a14.05 14.05 0 0 1 2.42 1.38 1 1 0 0 0 1.16-1.63 16 16 0 0 0-2.76-1.58 1 1 0 1 0-.81 1.83zM37 31a1 1 0 0 0-1-1H34V18a1 1 0 0 0-1.55-.83l-3 2a1 1 0 0 0 1.11 1.66l1.45-1V30H30a1 1 0 0 0 0 2h6A1 1 0 0 0 37 31z"/></svg>