<svg xmlns="http://www.w3.org/2000/svg"  viewBox="0 0 64 64" width="64px" height="64px"><rect width="62" height="10" x="1" y="43" fill="#c2cde7" rx="2" ry="2"/><rect width="2" height="56" x="31" y="20" fill="#d5e0f3" rx="1" ry="1" transform="rotate(-90 32 48)"/><path fill="#85cbf8" d="M61 43L41 43 41 23 51 23 61 37.08 61 43z"/><path fill="#bbdef9" d="M54 35L45 35 45 27 51 27 54 35z"/><path fill="#f6d397" d="M3 13H41V43H3z"/><path fill="#f9e3ae" d="M41,13H3v2a3,3,0,0,0,3,3H38a3,3,0,0,0,3-3Z"/><path fill="#acb7d0" d="M15 47A6 6 0 1 0 15 59 6 6 0 1 0 15 47zM51 47A6 6 0 1 0 51 59 6 6 0 1 0 51 47z"/><path fill="#8d6c9f" d="M31 18a1 1 0 0 0 0-2H9a1 1 0 0 0 0 2zM1 18H5a1 1 0 0 0 0-2H1a1 1 0 0 0 0 2zM1 22H23a1 1 0 0 0 0-2H1a1 1 0 0 0 0 2zM1 26H15a1 1 0 0 0 0-2H1a1 1 0 0 0 0 2zM1 30H7a1 1 0 0 0 0-2H1a1 1 0 0 0 0 2zM7 46a1 1 0 0 0-1 1v2a1 1 0 0 0 2 0V47A1 1 0 0 0 7 46zM23 46a1 1 0 0 0-1 1v2a1 1 0 0 0 2 0V47A1 1 0 0 0 23 46zM28 46a1 1 0 0 0-1 1v2a1 1 0 0 0 2 0V47A1 1 0 0 0 28 46zM33 46a1 1 0 0 0-1 1v2a1 1 0 0 0 2 0V47A1 1 0 0 0 33 46zM38 46a1 1 0 0 0-1 1v2a1 1 0 0 0 2 0V47A1 1 0 0 0 38 46zM43 46a1 1 0 0 0-1 1v2a1 1 0 0 0 2 0V47A1 1 0 0 0 43 46zM59 46a1 1 0 0 0-1 1v2a1 1 0 0 0 2 0V47A1 1 0 0 0 59 46zM47 38H45a1 1 0 0 0 0 2h2a1 1 0 0 0 0-2z"/><path fill="#8d6c9f" d="M62,42.17A1,1,0,0,0,62,42V38.17a5,5,0,0,0-.79-2.7L54,24.3A5,5,0,0,0,49.82,22H48V20a1,1,0,0,0-2,0v2H42V15a3,3,0,0,0-3-3H1a1,1,0,0,0,0,2H39a1,1,0,0,1,1,1V42H4V33a1,1,0,0,0-2,0v9a1,1,0,0,0,0,.17A3,3,0,0,0,0,45v6a3,3,0,0,0,3,3H8.08a7,7,0,0,0,13.84,0H44.08a7,7,0,0,0,13.84,0H61a3,3,0,0,0,3-3V45A3,3,0,0,0,62,42.17ZM42,24h7.82a3,3,0,0,1,2.52,1.38l7.18,11.17A3,3,0,0,1,60,38.17V42H42ZM15,58a5,5,0,1,1,5-5A5,5,0,0,1,15,58Zm36,0a5,5,0,1,1,5-5A5,5,0,0,1,51,58Zm11-7a1,1,0,0,1-1,1H57.92a7,7,0,0,0-13.84,0H21.92A7,7,0,0,0,8.08,52H3a1,1,0,0,1-1-1V50a1,1,0,0,0,1-1V47a1,1,0,0,0-1-1V45a1,1,0,0,1,1-1H61a1,1,0,0,1,1,1Z"/><path fill="#8d6c9f" d="M51 51A2 2 0 1 0 51 55 2 2 0 1 0 51 51zM15 51A2 2 0 1 0 15 55 2 2 0 1 0 15 51zM51.14 26.94a2 2 0 0 0-1.7-.94H46a2 2 0 0 0-2 2v6a2 2 0 0 0 2 2h7.2a2 2 0 0 0 1.7-3.06zM46 34V28h3.45l3.76 6z"/></svg>