<svg xmlns="http://www.w3.org/2000/svg"  viewBox="0 0 64 64" width="48px" height="48px"><path fill="#97e0bb" d="M31 3A28 28 0 1 0 31 59A28 28 0 1 0 31 3Z" transform="rotate(-87 30.997 30.997)"/><path fill="#72caaf" d="M31,53q-.59,0-1.18,0A22,22,0,0,1,31,9q.59,0,1.18,0A22,22,0,0,1,31,53Z"/><path fill="#8d6c9f" d="M31,60A29,29,0,1,1,60,31,29,29,0,0,1,31,60ZM31,4A27,27,0,1,0,58,31,27,27,0,0,0,31,4Z"/><path fill="#8d6c9f" d="M22.29 52.16a1 1 0 0 1-.91-1.41l.81-1.83a1 1 0 1 1 1.83.81l-.81 1.83A1 1 0 0 1 22.29 52.16zM27.67 53.74h-.16a1 1 0 0 1-.83-1.14l.31-2a1 1 0 1 1 2 .31l-.31 2A1 1 0 0 1 27.67 53.74zM13.63 45.17A1 1 0 0 1 13 43.36l1.62-1.18a1 1 0 1 1 1.18 1.62L14.22 45A1 1 0 0 1 13.63 45.17zM33.28 53.88a1 1 0 0 1-1-.89l-.21-2a1 1 0 1 1 2-.21l.21 2a1 1 0 0 1-.89 1.1zM17.5 49.23a1 1 0 0 1-.78-1.63L18 46a1 1 0 0 1 1.56 1.26l-1.26 1.56A1 1 0 0 1 17.5 49.23zM40.9 12.35a1 1 0 0 1-.45-.11 21 21 0 0 0-2.1-.92 1 1 0 1 1 .7-1.87 23 23 0 0 1 2.3 1 1 1 0 0 1-.45 1.89zM24.22 11.07a1 1 0 0 1-.31-2 23.14 23.14 0 0 1 10.75-.83 1 1 0 1 1-.32 2 21.19 21.19 0 0 0-9.81.75A1 1 0 0 1 24.22 11.07z"/><path fill="#faefde" d="M43 26H19a1 1 0 0 1 0-2H43a1 1 0 0 1 0 2zM43 32H19a1 1 0 0 1 0-2H43a1 1 0 0 1 0 2zM43 38H19a1 1 0 0 1 0-2H43a1 1 0 0 1 0 2z"/></svg>