<svg xmlns="http://www.w3.org/2000/svg"  viewBox="0 0 64 64" width="64px" height="64px"><path fill="#f283a5" d="M10.495,45c-0.745,0-1.342-0.464-1.789-1.237c-0.298-0.619-0.447-1.546-0.596-2.629 c-0.298-3.402,0-8.505,1.044-10.052C9.6,30.309,10.346,30,10.942,30c0.447,0,0.895,0.155,10.585,4.33l2.833,1.237 c1.044,0.464,1.64,1.546,1.64,2.784c0,1.237-0.745,2.165-1.789,2.474l-4.025,1.392C11.24,45,10.942,45,10.495,45z"/><path fill="#f283a5" d="M31,51.081c0,9.712,0,10.02-0.161,10.483c-0.321,0.771-0.964,1.233-1.768,1.387 c-2.571,0.462-10.606-2.466-12.373-4.316c-0.321-0.462-0.482-0.771-0.643-1.233c0-0.308,0-0.617,0.161-0.925 c0.161-0.462,0.482-0.925,7.713-9.095l2.089-2.466c0.643-0.925,2.089-1.079,3.214-0.771c1.125,0.462,1.928,1.387,1.768,2.466 C31,46.765,31,51.081,31,51.081z"/><path fill="#ed7899" d="M29.232,44.144l-6.785,17.467c2.592,0.932,5.316,1.575,6.624,1.34 c0.803-0.154,1.446-0.617,1.768-1.387C31,61.101,31,60.793,31,51.081c0,0,0-4.316,0-4.471 C31.161,45.532,30.357,44.607,29.232,44.144z"/><path fill="#f283a5" d="M29.211,29.884c-0.476,0.152-2.065,0.606-3.971-2.425c0,0-12.865-19.552-13.183-20.159 c-0.159-0.606,0-1.516,0.635-2.122c1.906-1.97,12.23-4.699,14.93-4.092c0.953,0.152,1.429,0.758,1.747,1.516 c0.159,0.909,1.429,18.946,1.588,23.038C31.276,29.278,29.688,29.732,29.211,29.884z"/><path fill="#f7a1c8" d="M30.958,25.64C30.8,21.548,29.529,3.511,29.37,2.602c-0.318-0.758-0.794-1.364-1.747-1.516 c-1.28-0.287-4.272,0.174-7.269,0.949l8.858,27.849C29.688,29.732,31.276,29.278,30.958,25.64z"/><path fill="#f283a5" d="M36.446,34.784c-0.595-0.902-0.595-2.104,0-2.855l2.529-3.456c5.355-7.513,5.653-7.963,6.099-8.114 c0.595-0.451,1.339-0.451,2.083-0.15c2.083,1.052,6.545,7.663,6.843,10.067c0,0,0,0,0,0.15c0,0.902-0.298,1.503-0.893,1.953 c-0.446,0.301-0.744,0.451-11.008,2.855C40.463,35.686,39.176,36,39.176,36C38.118,36,37.041,35.686,36.446,34.784z"/><path fill="#8d6c9f" d="M39.176,37c-1.59,0-2.855-0.592-3.564-1.665c-0.841-1.273-0.819-2.93,0.052-4.028l3.458-4.763 c4.566-6.407,4.885-6.854,5.49-7.083c0.821-0.548,1.854-0.613,2.921-0.18c2.425,1.22,7.118,8.107,7.46,10.871L55,30.426 c0,1.194-0.422,2.094-1.289,2.75c-0.646,0.438-0.826,0.56-11.385,3.031c-1.613,0.447-2.913,0.765-2.913,0.765L39.176,37z M46.19,20.994c-0.192,0-0.367,0.052-0.512,0.162l-0.13,0.098l-0.154,0.052c-0.219,0.188-1.424,1.879-4.645,6.399l-0.961,1.348 l-2.536,3.466c-0.348,0.44-0.325,1.179,0.028,1.714l0,0c0.409,0.62,1.247,0.75,1.779,0.765c0.355-0.088,1.448-0.362,2.771-0.729 c9.232-2.163,10.392-2.501,10.717-2.72C52.802,31.356,53,31.073,53,30.426v-0.082c-0.323-2.127-4.563-8.369-6.294-9.242 C46.528,21.031,46.354,20.994,46.19,20.994z"/><path fill="#8d6c9f" d="M57.983,30.899c-0.498,0-0.929-0.371-0.991-0.877c-0.068-0.548,0.321-1.047,0.869-1.115 l1.984-0.245c0.549-0.066,1.048,0.322,1.115,0.87c0.068,0.548-0.321,1.047-0.869,1.115l-1.984,0.245 C58.065,30.897,58.024,30.899,57.983,30.899z"/><path fill="#8d6c9f" d="M56.177,26.182c-0.355,0-0.699-0.189-0.88-0.523c-0.264-0.485-0.083-1.092,0.402-1.355 l1.759-0.954c0.486-0.264,1.093-0.083,1.355,0.402c0.264,0.485,0.083,1.092-0.402,1.355l-1.759,0.954 C56.501,26.143,56.338,26.182,56.177,26.182z"/><path fill="#8d6c9f" d="M53.291,21.755c-0.299,0-0.595-0.133-0.792-0.388c-0.338-0.437-0.258-1.065,0.179-1.403 l1.582-1.225c0.438-0.338,1.064-0.259,1.403,0.178c0.338,0.437,0.258,1.065-0.179,1.403l-1.582,1.225 C53.72,21.687,53.505,21.755,53.291,21.755z"/><path fill="#8d6c9f" d="M49.694,18.094c-0.197,0-0.396-0.058-0.57-0.18c-0.453-0.315-0.564-0.939-0.249-1.392 l1.144-1.641c0.315-0.453,0.938-0.565,1.392-0.249c0.453,0.315,0.564,0.939,0.249,1.392l-1.144,1.641 C50.321,17.944,50.011,18.094,49.694,18.094z"/><path fill="#f283a5" d="M53.962,48.092c-0.301,2.427-5.262,8.799-7.668,9.709c-0.752,0.303-1.503,0.303-2.105-0.303 c-0.451-0.303-0.752-0.91-6.164-9.709l-1.654-2.579c-0.601-0.91-0.451-2.124,0.301-3.186c0.752-0.91,1.804-1.214,2.857-0.91 l4.059,1.365c9.021,3.034,9.322,3.034,9.622,3.337C53.811,46.575,54.112,47.333,53.962,48.092z"/><path fill="#8d6c9f" d="M10.495,46c-0.753,0-1.826-0.302-2.655-1.737c-0.402-0.828-0.563-1.843-0.721-2.992 c-0.285-3.227-0.093-8.823,1.205-10.748C8.962,29.416,10.101,29,10.942,29c0.672,0,0.742,0,10.98,4.412l2.837,1.237 c1.384,0.617,2.24,2.034,2.24,3.701c0,1.625-0.973,2.968-2.481,3.427l-4.006,1.384C11.392,46,11.111,46,10.495,46z M10.956,31 c-0.115,0-0.617,0.03-0.937,0.583c-0.811,1.206-1.236,5.776-0.913,9.463c0.119,0.857,0.261,1.784,0.501,2.283 C9.998,44,10.372,44,10.495,44c0.336,0,1.241-0.202,9.394-2.739l4.037-1.394C24.588,39.67,25,39.089,25,38.351 c0-0.88-0.392-1.579-1.047-1.871l-2.826-1.232C13.926,32.144,11.306,31.036,10.956,31C10.956,31,10.956,31,10.956,31z"/><g><path fill="#8d6c9f" d="M28.482,63.993c-3.453,0-10.739-2.818-12.507-4.669l-0.097-0.118 c-0.375-0.537-0.576-0.924-0.768-1.477l-0.055-0.159v-0.169c0-0.347,0-0.816,0.237-1.314c0.214-0.601,0.504-1.025,7.888-9.369 l2.075-2.449c0.887-1.282,2.781-1.489,4.241-1.09l0.117,0.04c1.632,0.672,2.561,2.022,2.388,3.458v4.404 c0,10.188,0,10.188-0.217,10.811c-0.462,1.11-1.351,1.815-2.524,2.041C29.031,63.974,28.77,63.993,28.482,63.993z M17.472,57.994 c1.727,1.702,9.311,4.36,11.422,3.972c0.496-0.095,0.844-0.361,1.022-0.789C30,60.932,30,59.428,30,51.081l0.011-4.618 c0.092-0.618-0.524-1.117-1.103-1.37c-0.761-0.191-1.727-0.1-2.069,0.394l-2.146,2.541c-5.727,6.471-7.413,8.436-7.532,8.777 l-0.057,0.133C17.07,57,17.06,57.094,17.057,57.229C17.16,57.497,17.273,57.703,17.472,57.994z"/></g><g><path fill="#8d6c9f" d="M45.369,59.002c-0.681,0-1.303-0.244-1.815-0.727c-0.471-0.33-0.668-0.65-3.562-5.371l-2.818-4.591 l-1.645-2.563c-0.807-1.223-0.685-2.876,0.326-4.305c1.032-1.252,2.492-1.713,3.951-1.292l4.1,1.377 c2.949,0.992,4.965,1.659,6.354,2.119c3.227,1.068,3.289,1.089,3.66,1.463l0.072,0.083c0.83,1.046,1.149,2.086,0.949,3.091 c-0.338,2.751-5.617,9.438-8.295,10.45C46.208,58.914,45.777,59.002,45.369,59.002z M38.74,41.993 c-0.482,0-0.931,0.224-1.298,0.668c-0.486,0.691-0.592,1.461-0.236,1.998l1.661,2.59l2.83,4.609 c2.034,3.319,2.876,4.692,3.051,4.811l0.152,0.125c0.119,0.123,0.342,0.352,1.02,0.08c2.055-0.778,6.784-6.765,7.05-8.905 c0.04-0.215,0.127-0.652-0.484-1.456c-0.169-0.076-1.085-0.379-2.854-0.965c-1.391-0.46-3.41-1.128-6.362-2.121l-4.059-1.364 C39.052,42.017,38.894,41.993,38.74,41.993z"/></g><g><path fill="#8d6c9f" d="M28.511,30.994c-1.181,0-2.643-0.657-4.118-3.002C22.252,24.737,11.496,8.383,11.172,7.763 l-0.081-0.209c-0.233-0.887-0.042-2.189,0.912-3.099c2.206-2.281,12.983-4.991,15.839-4.344c1.678,0.265,2.259,1.649,2.45,2.104 l0.063,0.215c0.187,1.068,1.459,19.475,1.602,23.171c0.251,2.863-0.563,4.639-2.424,5.229 C29.226,30.929,28.882,30.994,28.511,30.994z M13.006,6.94c0.812,1.313,8.157,12.505,13.069,19.97 c0.705,1.121,1.757,2.363,2.832,2.021c0.336-0.106,1.298-0.412,1.054-3.204c-0.155-3.984-1.356-21.088-1.563-22.85 c-0.27-0.587-0.55-0.742-0.933-0.803c-2.512-0.56-12.453,2.146-14.054,3.8C13.067,6.203,12.976,6.654,13.006,6.94z"/></g></svg>